<?xml version="1.0" encoding="UTF-8" standalone="no"?>
<!DOCTYPE svg PUBLIC "-//W3C//DTD SVG 1.1//EN"
 "http://www.w3.org/Graphics/SVG/1.1/DTD/svg11.dtd">
<!-- Generated by graphviz version 2.26.3 (20100126.1600)
 -->
<!-- Title: CommonForm Pages: 1 -->
<svg width="810pt" height="548pt"
 viewBox="0.00 0.00 810.00 548.00" xmlns="http://www.w3.org/2000/svg" xmlns:xlink="http://www.w3.org/1999/xlink">
<g id="graph1" class="graph" transform="scale(1 1) rotate(0) translate(4 544)">
<title>CommonForm</title>
<polygon fill="white" stroke="white" points="-4,5 -4,-544 807,-544 807,5 -4,5"/>
<!-- Forms -->
<g id="node1" class="node"><title>Forms</title>
<ellipse fill="none" stroke="black" cx="723" cy="-522" rx="39.8056" ry="18"/>
<text text-anchor="middle" x="723" y="-517.9" font-family="Times Roman,serif" font-size="14.00">Forms</text>
</g>
<!-- comprise -->
<g id="node3" class="node"><title>comprise</title>
<text text-anchor="middle" x="580" y="-445.9" font-family="Times Roman,serif" font-size="14.00">comprise</text>
</g>
<!-- Forms&#45;&gt;comprise -->
<g id="edge2" class="edge"><title>Forms&#45;&gt;comprise</title>
<path fill="none" stroke="black" d="M696.103,-508.457C674.437,-497.549 643.674,-482.06 619.257,-469.766"/>
<polygon fill="black" stroke="black" points="620.748,-466.598 610.242,-465.227 617.6,-472.85 620.748,-466.598"/>
</g>
<!-- emphasize -->
<g id="node14" class="node"><title>emphasize</title>
<text text-anchor="middle" x="682" y="-445.9" font-family="Times Roman,serif" font-size="14.00">may emphasize</text>
</g>
<!-- Forms&#45;&gt;emphasize -->
<g id="edge14" class="edge"><title>Forms&#45;&gt;emphasize</title>
<path fill="none" stroke="black" d="M712.865,-504.202C708.17,-495.957 702.49,-485.983 697.29,-476.85"/>
<polygon fill="black" stroke="black" points="700.293,-475.051 692.303,-468.093 694.21,-478.515 700.293,-475.051"/>
</g>
<!-- Content -->
<g id="node4" class="node"><title>Content</title>
<ellipse fill="none" stroke="black" cx="580" cy="-378" rx="50.2242" ry="18"/>
<text text-anchor="middle" x="580" y="-373.9" font-family="Times Roman,serif" font-size="14.00">Content</text>
</g>
<!-- comprise&#45;&gt;Content -->
<g id="edge3" class="edge"><title>comprise&#45;&gt;Content</title>
<path fill="none" stroke="black" d="M580,-431.831C580,-424.131 580,-414.974 580,-406.417"/>
<polygon fill="black" stroke="black" points="583.5,-406.413 580,-396.413 576.5,-406.413 583.5,-406.413"/>
</g>
<!-- is -->
<g id="node29" class="node"><title>is</title>
<text text-anchor="middle" x="411" y="-301.9" font-family="Times Roman,serif" font-size="14.00">may be</text>
</g>
<!-- Content&#45;&gt;is -->
<g id="edge29" class="edge"><title>Content&#45;&gt;is</title>
<path fill="none" stroke="black" d="M547.415,-364.118C518.767,-351.913 477.121,-334.17 447.39,-321.504"/>
<polygon fill="black" stroke="black" points="448.76,-318.283 438.188,-317.583 446.016,-324.723 448.76,-318.283"/>
</g>
<!-- Inclusions -->
<g id="node5" class="node"><title>Inclusions</title>
<ellipse fill="none" stroke="black" cx="678" cy="-234" rx="57.8712" ry="18"/>
<text text-anchor="middle" x="678" y="-229.9" font-family="Times Roman,serif" font-size="14.00">Inclusions</text>
</g>
<!-- include -->
<g id="node7" class="node"><title>include</title>
<text text-anchor="middle" x="747" y="-157.9" font-family="Times Roman,serif" font-size="14.00">include</text>
</g>
<!-- Inclusions&#45;&gt;include -->
<g id="edge5" class="edge"><title>Inclusions&#45;&gt;include</title>
<path fill="none" stroke="black" d="M694.703,-216.571C703.074,-207.836 713.371,-197.091 722.607,-187.453"/>
<polygon fill="black" stroke="black" points="725.338,-189.662 729.73,-180.021 720.284,-184.819 725.338,-189.662"/>
</g>
<!-- utilize -->
<g id="node9" class="node"><title>utilize</title>
<text text-anchor="middle" x="664" y="-157.9" font-family="Times Roman,serif" font-size="14.00">may utilize</text>
</g>
<!-- Inclusions&#45;&gt;utilize -->
<g id="edge8" class="edge"><title>Inclusions&#45;&gt;utilize</title>
<path fill="none" stroke="black" d="M674.467,-215.831C672.97,-208.131 671.189,-198.974 669.525,-190.417"/>
<polygon fill="black" stroke="black" points="672.925,-189.561 667.58,-180.413 666.053,-190.897 672.925,-189.561"/>
</g>
<!-- include&#45;&gt;Forms -->
<g id="edge6" class="edge"><title>include&#45;&gt;Forms</title>
<path fill="none" stroke="black" d="M750.522,-180.104C755.502,-207.318 764,-260.436 764,-306 764,-378 764,-378 764,-378 764,-420.086 747.6,-466.538 735.544,-494.998"/>
<polygon fill="black" stroke="black" points="732.286,-493.712 731.495,-504.278 738.702,-496.512 732.286,-493.712"/>
</g>
<!-- Headings -->
<g id="node10" class="node"><title>Headings</title>
<ellipse fill="none" stroke="black" cx="664" cy="-90" rx="55.0898" ry="18"/>
<text text-anchor="middle" x="664" y="-85.9" font-family="Times Roman,serif" font-size="14.00">Headings</text>
</g>
<!-- utilize&#45;&gt;Headings -->
<g id="edge9" class="edge"><title>utilize&#45;&gt;Headings</title>
<path fill="none" stroke="black" d="M664,-143.831C664,-136.131 664,-126.974 664,-118.417"/>
<polygon fill="black" stroke="black" points="667.5,-118.413 664,-108.413 660.5,-118.413 667.5,-118.413"/>
</g>
<!-- summarize -->
<g id="node12" class="node"><title>summarize</title>
<text text-anchor="middle" x="733" y="-13.9" font-family="Times Roman,serif" font-size="14.00">summarize</text>
</g>
<!-- Headings&#45;&gt;summarize -->
<g id="edge11" class="edge"><title>Headings&#45;&gt;summarize</title>
<path fill="none" stroke="black" d="M680.703,-72.5708C689.074,-63.8355 699.371,-53.0914 708.607,-43.4534"/>
<polygon fill="black" stroke="black" points="711.338,-45.6622 715.73,-36.0206 706.284,-40.8188 711.338,-45.6622"/>
</g>
<!-- summarize&#45;&gt;Forms -->
<g id="edge12" class="edge"><title>summarize&#45;&gt;Forms</title>
<path fill="none" stroke="black" d="M748.313,-36.2156C768.641,-62.3123 802,-112.655 802,-162 802,-378 802,-378 802,-378 802,-424.774 769.566,-470.727 746.262,-497.709"/>
<polygon fill="black" stroke="black" points="743.403,-495.656 739.369,-505.453 748.632,-500.31 743.403,-495.656"/>
</g>
<!-- emphasize&#45;&gt;Content -->
<g id="edge15" class="edge"><title>emphasize&#45;&gt;Content</title>
<path fill="none" stroke="black" d="M656.261,-431.831C642.546,-422.15 625.57,-410.167 611.119,-399.967"/>
<polygon fill="black" stroke="black" points="613.135,-397.105 602.946,-394.197 609.098,-402.824 613.135,-397.105"/>
</g>
<!-- Definitions -->
<g id="node15" class="node"><title>Definitions</title>
<ellipse fill="none" stroke="black" cx="199" cy="-234" rx="63.2343" ry="18"/>
<text text-anchor="middle" x="199" y="-229.9" font-family="Times Roman,serif" font-size="14.00">Definitions</text>
</g>
<!-- define -->
<g id="node17" class="node"><title>define</title>
<text text-anchor="middle" x="210" y="-157.9" font-family="Times Roman,serif" font-size="14.00">define</text>
</g>
<!-- Definitions&#45;&gt;define -->
<g id="edge17" class="edge"><title>Definitions&#45;&gt;define</title>
<path fill="none" stroke="black" d="M201.776,-215.831C202.952,-208.131 204.351,-198.974 205.659,-190.417"/>
<polygon fill="black" stroke="black" points="209.136,-190.827 207.187,-180.413 202.217,-189.77 209.136,-190.827"/>
</g>
<!-- Terms -->
<g id="node18" class="node"><title>Terms</title>
<ellipse fill="none" stroke="black" cx="257" cy="-90" rx="39.1069" ry="18"/>
<text text-anchor="middle" x="257" y="-85.9" font-family="Times Roman,serif" font-size="14.00">Terms</text>
</g>
<!-- define&#45;&gt;Terms -->
<g id="edge18" class="edge"><title>define&#45;&gt;Terms</title>
<path fill="none" stroke="black" d="M221.86,-143.831C227.383,-135.371 234.054,-125.152 240.092,-115.901"/>
<polygon fill="black" stroke="black" points="243.095,-117.705 245.63,-107.418 237.233,-113.878 243.095,-117.705"/>
</g>
<!-- Uses -->
<g id="node19" class="node"><title>Uses</title>
<ellipse fill="none" stroke="black" cx="314" cy="-234" rx="34.0492" ry="18"/>
<text text-anchor="middle" x="314" y="-229.9" font-family="Times Roman,serif" font-size="14.00">Uses</text>
</g>
<!-- use -->
<g id="node21" class="node"><title>use</title>
<text text-anchor="middle" x="303" y="-157.9" font-family="Times Roman,serif" font-size="14.00">use</text>
</g>
<!-- Uses&#45;&gt;use -->
<g id="edge20" class="edge"><title>Uses&#45;&gt;use</title>
<path fill="none" stroke="black" d="M311.224,-215.831C310.048,-208.131 308.649,-198.974 307.341,-190.417"/>
<polygon fill="black" stroke="black" points="310.783,-189.77 305.813,-180.413 303.864,-190.827 310.783,-189.77"/>
</g>
<!-- use&#45;&gt;Terms -->
<g id="edge21" class="edge"><title>use&#45;&gt;Terms</title>
<path fill="none" stroke="black" d="M291.392,-143.831C285.987,-135.371 279.458,-125.152 273.548,-115.901"/>
<polygon fill="black" stroke="black" points="276.461,-113.96 268.128,-107.418 270.562,-117.729 276.461,-113.96"/>
</g>
<!-- Insertions -->
<g id="node22" class="node"><title>Insertions</title>
<ellipse fill="none" stroke="black" cx="59" cy="-234" rx="59.065" ry="18"/>
<text text-anchor="middle" x="59" y="-229.9" font-family="Times Roman,serif" font-size="14.00">Insertions</text>
</g>
<!-- insert -->
<g id="node24" class="node"><title>insert</title>
<text text-anchor="middle" x="59" y="-157.9" font-family="Times Roman,serif" font-size="14.00">insert</text>
</g>
<!-- Insertions&#45;&gt;insert -->
<g id="edge23" class="edge"><title>Insertions&#45;&gt;insert</title>
<path fill="none" stroke="black" d="M59,-215.831C59,-208.131 59,-198.974 59,-190.417"/>
<polygon fill="black" stroke="black" points="62.5001,-190.413 59,-180.413 55.5001,-190.413 62.5001,-190.413"/>
</g>
<!-- Values -->
<g id="node25" class="node"><title>Values</title>
<ellipse fill="none" stroke="black" cx="59" cy="-90" rx="43.0827" ry="18"/>
<text text-anchor="middle" x="59" y="-85.9" font-family="Times Roman,serif" font-size="14.00">Values</text>
</g>
<!-- insert&#45;&gt;Values -->
<g id="edge24" class="edge"><title>insert&#45;&gt;Values</title>
<path fill="none" stroke="black" d="M59,-143.831C59,-136.131 59,-126.974 59,-118.417"/>
<polygon fill="black" stroke="black" points="62.5001,-118.413 59,-108.413 55.5001,-118.413 62.5001,-118.413"/>
</g>
<!-- References -->
<g id="node26" class="node"><title>References</title>
<ellipse fill="none" stroke="black" cx="538" cy="-234" rx="63.9292" ry="18"/>
<text text-anchor="middle" x="538" y="-229.9" font-family="Times Roman,serif" font-size="14.00">References</text>
</g>
<!-- reference -->
<g id="node28" class="node"><title>reference</title>
<text text-anchor="middle" x="557" y="-157.9" font-family="Times Roman,serif" font-size="14.00">reference</text>
</g>
<!-- References&#45;&gt;reference -->
<g id="edge26" class="edge"><title>References&#45;&gt;reference</title>
<path fill="none" stroke="black" d="M542.795,-215.831C544.849,-208.046 547.296,-198.773 549.576,-190.135"/>
<polygon fill="black" stroke="black" points="552.973,-190.975 552.141,-180.413 546.205,-189.189 552.973,-190.975"/>
</g>
<!-- reference&#45;&gt;Headings -->
<g id="edge27" class="edge"><title>reference&#45;&gt;Headings</title>
<path fill="none" stroke="black" d="M584.001,-143.831C598.388,-134.15 616.196,-122.167 631.355,-111.967"/>
<polygon fill="black" stroke="black" points="633.586,-114.684 639.929,-106.197 629.678,-108.876 633.586,-114.684"/>
</g>
<!-- is&#45;&gt;Inclusions -->
<g id="edge41" class="edge"><title>is&#45;&gt;Inclusions</title>
<path fill="none" stroke="black" d="M438.071,-298.7C481.594,-286.963 567.945,-263.678 624.308,-248.479"/>
<polygon fill="black" stroke="black" points="625.377,-251.816 634.121,-245.833 623.554,-245.057 625.377,-251.816"/>
</g>
<!-- is&#45;&gt;Definitions -->
<g id="edge31" class="edge"><title>is&#45;&gt;Definitions</title>
<path fill="none" stroke="black" d="M383.719,-296.735C349.792,-285.213 291.219,-265.32 249.118,-251.021"/>
<polygon fill="black" stroke="black" points="250.193,-247.69 239.598,-247.788 247.942,-254.318 250.193,-247.69"/>
</g>
<!-- is&#45;&gt;Uses -->
<g id="edge33" class="edge"><title>is&#45;&gt;Uses</title>
<path fill="none" stroke="black" d="M386.523,-287.831C373.044,-277.827 356.254,-265.364 342.225,-254.95"/>
<polygon fill="black" stroke="black" points="344.016,-251.921 333.9,-248.771 339.844,-257.542 344.016,-251.921"/>
</g>
<!-- is&#45;&gt;Insertions -->
<g id="edge39" class="edge"><title>is&#45;&gt;Insertions</title>
<path fill="none" stroke="black" d="M383.848,-301.497C333.148,-292.944 220.725,-273.287 127,-252 122.333,-250.94 117.502,-249.783 112.665,-248.583"/>
<polygon fill="black" stroke="black" points="113.336,-245.142 102.783,-246.078 111.616,-251.928 113.336,-245.142"/>
</g>
<!-- is&#45;&gt;References -->
<g id="edge35" class="edge"><title>is&#45;&gt;References</title>
<path fill="none" stroke="black" d="M438.245,-290.554C456.448,-280.234 480.628,-266.526 500.623,-255.19"/>
<polygon fill="black" stroke="black" points="502.506,-258.146 509.479,-250.169 499.054,-252.057 502.506,-258.146"/>
</g>
<!-- Strings -->
<g id="node35" class="node"><title>Strings</title>
<ellipse fill="none" stroke="black" cx="411" cy="-234" rx="45.1673" ry="18"/>
<text text-anchor="middle" x="411" y="-229.9" font-family="Times Roman,serif" font-size="14.00">Strings</text>
</g>
<!-- is&#45;&gt;Strings -->
<g id="edge37" class="edge"><title>is&#45;&gt;Strings</title>
<path fill="none" stroke="black" d="M411,-287.831C411,-280.131 411,-270.974 411,-262.417"/>
<polygon fill="black" stroke="black" points="414.5,-262.413 411,-252.413 407.5,-262.413 414.5,-262.413"/>
</g>
</g>
</svg>
